<?xml version="1.0" standalone="no"?>
<!DOCTYPE svg PUBLIC "-//W3C//DTD SVG 20010904//EN"
 "http://www.w3.org/TR/2001/REC-SVG-20010904/DTD/svg10.dtd">
<svg version="1.0" xmlns="http://www.w3.org/2000/svg"
 width="175.000000pt" height="175.000000pt" viewBox="0 0 175.000000 175.000000"
 preserveAspectRatio="xMidYMid meet">
<metadata>
Created by potrace 1.14, written by Peter Selinger 2001-2017
</metadata>
<g transform="translate(0.000000,175.000000) scale(0.100000,-0.100000)"
fill="#000000" stroke="none">
<path d="M0 875 l0 -875 875 0 875 0 0 875 0 875 -875 0 -875 0 0 -875z m790
305 c58 -110 110 -200 115 -200 6 0 154 47 330 104 176 58 320 104 322 103 1
-2 -280 -133 -625 -291 -345 -159 -631 -292 -636 -294 -5 -3 -7 -1 -5 4 193
392 385 774 389 774 3 0 53 -90 110 -200z m557 -36 c-3 -3 -12 -4 -19 -1 -8 3
-5 6 6 6 11 1 17 -2 13 -5z m-38 -8 c-2 -2 -94 -34 -203 -71 -134 -44 -202
-63 -209 -56 -13 13 -28 7 208 75 186 53 213 60 204 52z m-240 -210 c-14 -14
-756 -363 -762 -359 -5 3 -6 7 -4 10 7 7 751 351 761 352 5 1 7 -1 5 -3z m-39
-226 l30 -60 -69 0 c-63 0 -70 2 -77 22 -5 18 2 29 37 60 24 21 45 38 46 38 2
0 16 -27 33 -60z"/>
<path d="M663 1113 c-4 -10 -30 -73 -59 -140 -29 -68 -47 -123 -41 -123 14 0
199 71 210 80 9 8 -83 200 -96 200 -4 0 -10 -8 -14 -17z"/>
</g>
</svg>
